<svg width="78" height="78" viewBox="0 0 78 78" fill="none" xmlns="http://www.w3.org/2000/svg">
<path d="M29.77 35.3275C29.445 35.295 29.055 35.295 28.6975 35.3275C20.9625 35.0675 14.82 28.73 14.82 20.93C14.82 12.9675 21.255 6.5 29.25 6.5C37.2125 6.5 43.68 12.9675 43.68 20.93C43.6475 28.73 37.505 35.0675 29.77 35.3275Z" stroke="#E90064" stroke-width="2" stroke-linecap="round" stroke-linejoin="round"/>
<path d="M53.3325 13C59.6375 13 64.7075 18.1025 64.7075 24.375C64.7075 30.5175 59.8325 35.5225 53.755 35.75C53.495 35.7175 53.2025 35.7175 52.91 35.75" stroke="#E90064" stroke-width="2" stroke-linecap="round" stroke-linejoin="round"/>
<path d="M13.52 47.32C5.655 52.585 5.655 61.165 13.52 66.3975C22.4575 72.3775 37.115 72.3775 46.0525 66.3975C53.9175 61.1325 53.9175 52.5525 46.0525 47.32C37.1475 41.3725 22.49 41.3725 13.52 47.32Z" stroke="#E90064" stroke-width="2" stroke-linecap="round" stroke-linejoin="round"/>
<path d="M59.605 65C61.945 64.5125 64.155 63.57 65.975 62.1725C71.045 58.37 71.045 52.0975 65.975 48.295C64.1875 46.93 62.01 46.02 59.7025 45.5" stroke="#E90064" stroke-width="2" stroke-linecap="round" stroke-linejoin="round"/>
</svg>
