<svg width="78" height="78" viewBox="0 0 78 78" fill="none" xmlns="http://www.w3.org/2000/svg">
<path d="M42.2825 9.49001L61.4575 18.005C66.9825 20.4425 66.9825 24.4725 61.4575 26.91L42.2825 35.425C40.105 36.4 36.53 36.4 34.3525 35.425L15.1775 26.91C9.6525 24.4725 9.6525 20.4425 15.1775 18.005L34.3525 9.49001C36.53 8.51501 40.105 8.51501 42.2825 9.49001Z" stroke="#E90064" stroke-width="2" stroke-linecap="round" stroke-linejoin="round"/>
<path d="M9.75 35.75C9.75 38.48 11.7975 41.6325 14.3 42.7375L36.3675 52.5525C38.0575 53.3 39.975 53.3 41.6325 52.5525L63.7 42.7375C66.2025 41.6325 68.25 38.48 68.25 35.75" stroke="#E90064" stroke-width="2" stroke-linecap="round" stroke-linejoin="round"/>
<path d="M9.75 52C9.75 55.0225 11.5375 57.7525 14.3 58.9875L36.3675 68.8025C38.0575 69.55 39.975 69.55 41.6325 68.8025L63.7 58.9875C66.4625 57.7525 68.25 55.0225 68.25 52" stroke="#E90064" stroke-width="2" stroke-linecap="round" stroke-linejoin="round"/>
</svg>
